Coordinates
version=1
nRows=11
nColumns=42
inDegrees=yes

Units are S.I. units (second, meters, Newtons, ...)
If the header above contains a line with 'inDegrees', this indicates whether rotational values are in degrees (yes) or radians (no).

endheader
time	pelvis_tilt	pelvis_list	pelvis_rotation	pelvis_tx	pelvis_ty	pelvis_tz	hip_flexion_r	hip_adduction_r	hip_rotation_r	knee_angle_r	knee_adduction_r	knee_angle_r_beta	ankle_angle_r	subtalar_angle_r	mtp_angle_r	hip_flexion_l	hip_adduction_l	hip_rotation_l	knee_angle_l	knee_adduction_l	knee_angle_l_beta	ankle_angle_l	subtalar_angle_l	mtp_angle_l	lumbar_extension	lumbar_bending	lumbar_rotation	arm_flex_r	arm_add_r	arm_rot_r	elbow_flex_r	pro_sup_r	wrist_flex_r	wrist_dev_r	arm_flex_l	arm_add_l	arm_rot_l	elbow_flex_l	pro_sup_l	wrist_flex_l	wrist_dev_l
      1.77000000	     13.60002221	     -4.32962157	      3.06621332	     -0.31060801	      0.87962520	      0.16250007	      7.40177963	      2.42283131	    -23.33650784	     28.04646184	      0.24551090	      0.48950310	     14.42741984	     31.27627674	     -7.50919484	    -25.08579765	     -5.48796660	    -12.40382054	     40.59192628	     -9.29253368	      0.70846276	     10.74536909	     25.61606566	     -7.50919484	    -35.79075419	      7.98008477	      1.52540336	     -1.11608801	    -16.07363873	      0.06882062	     44.21132317	     90.00000001	      0.00000000	      0.00000000	     22.29901700	    -14.52687649	      8.34668119	     52.46420813	     90.00000001	      0.00000000	      0.00000000
      1.78000000	     13.63227939	     -4.74129226	      3.31385022	     -0.29774412	      0.88215662	      0.16401611	      5.89427671	      3.19699721	    -23.84593201	     26.92962741	      0.19462320	      0.47001066	     14.83171405	     31.93302652	     -7.50892590	    -23.23978642	     -6.34402960	    -13.07363427	     43.70759911	    -10.30633595	      0.76284151	     10.88390659	     25.83398843	     -7.50892590	    -35.86799704	      8.38700768	      1.71670099	     -0.86406163	    -16.13414456	      0.14642208	     44.41823034	     90.00000001	      0.00000000	      0.00000000	     21.69633556	    -14.47273446	      8.57407395	     52.19459028	     90.00000001	      0.00000000	      0.00000000
      1.79000000	     13.65696716	     -4.89227445	      3.65371761	     -0.28515217	      0.88469803	      0.16506188	      4.35962725	      3.60521664	    -24.47091789	     25.80665619	      0.25824214	      0.45041112	     15.30216183	     32.76319926	     -7.50868470	    -21.27456193	     -6.83279257	    -13.51960524	     46.51402017	    -11.42563105	      0.81182280	     11.24934666	     25.82789126	     -7.50868470	    -35.95241086	      8.60345615	      1.73767435	     -0.63491950	    -16.16855941	      0.17004207	     44.73971315	     90.00000001	      0.00000000	      0.00000000	     21.13744881	    -14.40781742	      8.81830322	     51.84761693	     90.00000001	      0.00000000	      0.00000000
      1.80000000	     13.71767392	     -4.86348140	      4.07038363	     -0.27278301	      0.88717961	      0.16592895	      2.84467259	      3.81007359	    -25.56389711	     24.77613399	      0.13095037	      0.43242511	     15.63938897	     34.13759568	     -7.50828948	    -19.25015624	     -7.10405777	    -13.91526582	     49.02408842	    -12.58755802	      0.85563176	     11.93582079	     25.86022262	     -7.50828948	    -36.06975875	      8.66229087	      1.62190768	     -0.40802581	    -16.14641011	      0.14446037	     45.15909370	     90.00000001	      0.00000000	      0.00000000	     20.63799447	    -14.42223534	      9.14680075	     51.42915894	     90.00000001	      0.00000000	      0.00000000
      1.81000000	     13.75818389	     -4.68296021	      4.46779153	     -0.26064545	      0.88964675	      0.16667486	      1.34373637	      3.86513851	    -26.13509627	     23.73787638	      0.24671523	      0.41430410	     16.10678118	     34.87531487	     -7.50798752	    -17.16785293	     -7.11490509	    -14.11265780	     51.21077823	    -13.58887664	      0.89379669	     12.69021779	     25.35273511	     -7.50798752	    -36.20599225	      8.56370932	      1.48267682	     -0.17626138	    -16.12784626	      0.15301055	     45.61590045	     90.00000001	      0.00000000	      0.00000000	     20.18222155	    -14.41212631	      9.39922236	     50.95429742	     90.00000001	      0.00000000	      0.00000000
      1.82000000	     13.79680318	     -4.40324384	      4.87501528	     -0.24862395	      0.89200492	      0.16728170	     -0.11370852	      3.82065944	    -26.54710954	     22.78440809	      0.40017504	      0.39766294	     16.53228237	     35.37829241	     -7.50773871	    -15.06824376	     -6.94194308	    -14.24040070	     53.05160639	    -14.48056737	      0.92592521	     13.58221505	     24.72996217	     -7.50773871	    -36.34518465	      8.37203741	      1.30128339	      0.04816841	    -16.10924731	      0.17547355	     46.12338925	     90.00000001	      0.00000000	      0.00000000	     19.74675659	    -14.41495156	      9.64943896	     50.43012835	     90.00000001	      0.00000000	      0.00000000
      1.83000000	     13.81948220	     -3.91825036	      5.27395266	     -0.23677209	      0.89427084	      0.16766695	     -1.56696014	      3.48175691	    -26.57016777	     21.91315251	      0.85800814	      0.38245666	     16.98101374	     35.33615514	     -7.50760833	    -12.95714239	     -6.41280912	    -14.37535553	     54.46211324	    -15.40103771	      0.95054319	     14.35335321	     24.14841911	     -7.50760833	    -36.49144060	      7.99100309	      1.01839127	      0.28386235	    -16.08454355	      0.20403863	     46.66064249	     90.00000001	      0.00000000	      0.00000000	     19.29224639	    -14.41506293	      9.78366413	     49.93834887	     90.00000001	      0.00000000	      0.00000000
      1.84000000	     13.79675887	     -3.51435342	      5.64964133	     -0.22496551	      0.89622860	      0.16818679	     -2.90354633	      3.29779850	    -26.57958391	     21.06966522	      1.16202826	      0.36773503	     17.43964308	     35.41965738	     -7.50747588	    -10.80568641	     -5.96839345	    -14.45718975	     55.62294874	    -16.03998868	      0.97080360	     15.36182392	     23.42615475	     -7.50747588	    -36.58616171	      7.66171870	      0.83513124	      0.48299387	    -16.10594972	      0.26473475	     47.24394420	     90.00000001	      0.00000000	      0.00000000	     18.84774283	    -14.42198154	      9.95621940	     49.38381317	     90.00000001	      0.00000000	      0.00000000
      1.85000000	     13.75378856	     -3.15149953	      5.99662048	     -0.21323189	      0.89791458	      0.16893876	     -4.12614680	      3.21325885	    -26.82167063	     20.31301973	      1.23218629	      0.35452908	     17.85504969	     35.85894147	     -7.50714430	     -8.66293524	     -5.58335602	    -14.11267448	     56.60561610	    -16.08657590	      0.98795438	     16.50455283	     22.14966347	     -7.50714430	    -36.66767198	      7.33369303	      0.76337399	      0.61150894	    -16.17646640	      0.41994754	     47.94098056	     90.00000001	      0.00000000	      0.00000000	     18.45735336	    -14.46718086	     10.29756669	     48.78367674	     90.00000001	      0.00000000	      0.00000000
      1.86000000	     13.68240685	     -2.71919841	      6.26716966	     -0.20147127	      0.89939204	      0.16937164	     -5.36200509	      2.96203497	    -26.42758170	     19.58440062	      1.66424700	      0.34181227	     18.37514001	     35.61041556	     -7.50700213	     -6.58365174	     -4.97219131	    -14.18181769	     57.06436527	    -16.41371120	      0.99596106	     17.50860055	     21.41899682	     -7.50700213	    -36.71850380	      6.95105430	      0.64531826	      0.82835065	    -16.27682087	      0.47822415	     48.58963943	     90.00000001	      0.00000000	      0.00000000	     17.93142849	    -14.46384452	     10.38050245	     48.26893927	     90.00000001	      0.00000000	      0.00000000
      1.87000000	     13.71051621	     -2.36060487	      6.39418358	     -0.18959399	      0.90074873	      0.17024581	     -6.67265810	      2.87913584	    -25.90062395	     18.81648353	      1.94886869	      0.32840959	     18.84431641	     35.38170816	     -7.50680472	     -4.74103842	     -4.49510106	    -14.09588589	     57.20338777	    -16.25460044	      0.99838746	     18.57553752	     20.41671447	     -7.50680472	    -36.87645461	      6.53885366	      0.75683003	      0.92676074	    -16.42601856	      0.67080698	     49.37076677	     90.00000001	      0.00000000	      0.00000000	     17.44532763	    -14.45461055	     10.48370311	     47.72989263	     90.00000001	      0.00000000	      0.00000000
